<svg id="Logo" xmlns="http://www.w3.org/2000/svg" viewBox="0 0 300 56.31"><defs><style>.cls-1{fill:#fff;}</style></defs><title>Logo White</title><path class="cls-1" d="M125,28c0-12.32,7.41-19.83,17.54-19.83a14.8,14.8,0,0,1,11,4.71L150.84,16a10.83,10.83,0,0,0-8.23-3.6c-7.69,0-12.64,5.91-12.64,15.43s4.54,15.62,12.69,15.62a10.38,10.38,0,0,0,6.89-2.24V31.27h-8.09v-4H154V43.3c-2.46,2.56-6.64,4.44-11.78,4.44C132.12,47.74,125,40.38,125,28Z"/><path class="cls-1" d="M170.94,8.83h5.48L189.35,47H184.2L177.53,25.7c-1.37-4.27-2.59-8.46-3.82-12.87h-.23c-1.19,4.43-2.41,8.6-3.78,12.87L163,47h-5Zm-6.13,22.69H182.4V35.4H164.81Z"/><path class="cls-1" d="M194.74,8.83h5.86l7.32,20.42c.92,2.61,1.8,5.31,2.72,8h.23c.92-2.65,1.72-5.35,2.64-8l7.24-20.42h5.85V47h-4.52V26c0-3.32.38-7.92.62-11.29h-.23l-3,8.71-7.2,19.76H209l-7.23-19.76-3-8.71h-.23c.24,3.37.62,8,.62,11.29V47h-4.41Z"/><path class="cls-1" d="M237.06,8.83h22V13H241.92v12h14.47V29H241.92V42.92h17.74V47h-22.6Z"/><path class="cls-1" d="M265,42.07l2.91-3.34a14.93,14.93,0,0,0,10.54,4.73c5,0,8-2.49,8-6.21,0-3.9-2.77-5.14-6.38-6.72l-5.49-2.42c-3.56-1.52-7.73-4.22-7.73-9.83,0-5.84,5.08-10.14,12-10.14a15.77,15.77,0,0,1,11.24,4.73L287.5,16a12.21,12.21,0,0,0-8.67-3.58c-4.29,0-7.13,2.16-7.13,5.58,0,3.68,3.33,5.05,6.33,6.32l5.44,2.36c4.42,1.9,7.87,4.53,7.87,10.21,0,6-5,10.86-13,10.86A18.32,18.32,0,0,1,265,42.07Z"/><path class="cls-1" d="M0,0V56.26H300V0Zm20,47.7A18.32,18.32,0,0,1,6.66,42.07l2.91-3.34a14.94,14.94,0,0,0,10.54,4.74c5,0,8-2.5,8-6.21,0-3.9-2.76-5.15-6.37-6.72l-5.48-2.42C12.68,26.6,8.5,23.9,8.5,18.29c0-5.84,5.09-10.14,12-10.14a15.77,15.77,0,0,1,11.24,4.73L29.19,16a12.2,12.2,0,0,0-8.66-3.58c-4.29,0-7.12,2.16-7.12,5.58,0,3.68,3.33,5.05,6.32,6.32l5.44,2.35C29.59,28.57,33,31.21,33,36.89,33,42.92,28.05,47.74,20,47.74ZM64.86,13H53.31V47H48.45V13H36.89V8.85h28ZM76.56,47H71.7V8.85h4.86Zm28.87,0-5.6-10.28c-1-1.91-2-3.81-3.27-6.14h-.23c-1.11,2.33-2.07,4.23-3,6.14L87.78,47H82.66L93.79,27.31,83.39,8.85h5.36L94,18.62c1,1.75,1.78,3.33,3,5.55h.24c1-2.22,1.77-3.8,2.69-5.55l5.08-9.77h5.12L99.66,27.56,110.79,47Zm191.41,6H119.31V3.23H296.84Z"/></svg>